<svg width="377" height="91" viewBox="0 0 377 91" fill="none" xmlns="http://www.w3.org/2000/svg">
<path d="M23.7815 36.7343L16.3849 44.1309C15.6125 44.8799 15.6125 46.1205 16.3849 46.8929L23.7815 54.2895C24.4369 54.9449 25.4903 55.0386 26.2861 54.5002L28.9077 52.651C29.9142 51.9722 30.0312 50.5444 29.1652 49.6784L26.3797 46.8929C25.6307 46.1205 25.6307 44.8799 26.3797 44.1309L29.1652 41.3454C30.0312 40.4794 29.9142 39.0516 28.9077 38.3494L26.2861 36.5236C25.4903 35.9618 24.4369 36.0555 23.7815 36.7343Z" fill="#A8223F"/>
<path d="M36.2341 66.7421L43.6307 74.1387C44.3797 74.8877 45.6203 74.8877 46.3927 74.1387L53.7659 66.7421C54.4447 66.0633 54.5384 65.01 54 64.2375L52.1509 61.5926C51.4486 60.6095 50.0208 60.4924 49.1782 61.3351L46.3927 64.1205C45.6203 64.8929 44.3797 64.8929 43.6307 64.1205L40.8453 61.3351C39.9792 60.4924 38.5514 60.6095 37.8492 61.5926L36.0234 64.2375C35.4616 65.01 35.5553 66.0633 36.2341 66.7421Z" fill="#A8223F"/>
<path d="M66.2419 54.2891L73.6151 46.8925C74.3875 46.1201 74.3875 44.8795 73.6151 44.1305L66.2419 36.7339C65.5631 36.0551 64.5097 35.9848 63.7373 36.5232L61.0923 38.3489C60.1092 39.0512 59.9688 40.479 60.8348 41.345L63.6203 44.1305C64.3927 44.8795 64.3927 46.1201 63.6203 46.8925L60.8348 49.6779C59.9688 50.544 60.1092 51.9718 61.0923 52.6506L63.7373 54.4998C64.5097 55.0382 65.5631 54.9445 66.2419 54.2891Z" fill="#A8223F"/>
<path d="M53.7659 24.2816L46.3927 16.885C45.6203 16.136 44.3797 16.136 43.6307 16.885L36.2341 24.2816C35.5553 24.9604 35.4616 26.0138 36.0234 26.7862L37.8492 29.4078C38.5514 30.4143 39.9792 30.5313 40.8453 29.6652L43.6307 26.8798C44.3797 26.1308 45.6203 26.1308 46.3927 26.8798L49.1782 29.6652C50.0208 30.5313 51.4486 30.4143 52.1509 29.4078L54 26.7862C54.5384 26.0138 54.4447 24.9604 53.7659 24.2816Z" fill="#A8223F"/>
<path d="M17.1573 30.1331L14.5124 28.2839C13.7399 27.7456 12.6866 27.8158 12.0078 28.4946L0.585176 39.9406C0.210663 40.2917 0 40.8067 0 41.3216V49.7014C0 50.2163 0.210663 50.7079 0.585176 51.0824L12.0078 62.5284C12.6866 63.1838 13.7399 63.2774 14.5124 62.7391L17.1573 60.8899C18.1404 60.1877 18.2575 58.7833 17.4148 57.9172L6.39012 46.8925C5.61769 46.1201 5.61769 44.8795 6.39012 44.1305L17.4148 33.1058C18.2575 32.2397 18.1404 30.8119 17.1573 30.1331Z" fill="#A8223F"/>
<path d="M29.6099 73.3663L27.7842 75.9879C27.2224 76.7837 27.316 77.8371 27.9948 78.4924L39.4409 89.9385C39.792 90.313 40.2835 90.5002 40.8219 90.5002H49.2016C49.7165 90.5002 50.2081 90.313 50.5826 89.9385L62.0052 78.4924C62.684 77.8371 62.7777 76.7837 62.2393 75.9879L60.3901 73.3663C59.6879 72.3832 58.2601 72.2428 57.4174 73.1088L46.3927 84.1335C45.6203 84.8826 44.3797 84.8826 43.6307 84.1335L32.606 73.1088C31.7399 72.2428 30.3121 72.3832 29.6099 73.3663Z" fill="#A8223F"/>
<path fill-rule="evenodd" clip-rule="evenodd" d="M56.247 42.5625V48.4376C56.247 48.9526 56.0364 49.4675 55.6619 49.8186L49.3186 56.1619C48.9441 56.5364 48.4525 56.7471 47.9376 56.7471H42.0624C41.5474 56.7471 41.0559 56.5364 40.6814 56.1619L34.3381 49.8186C33.9636 49.4675 33.7763 48.9526 33.7763 48.4376V42.5625C33.7763 42.0475 33.9636 41.5559 34.3381 41.1814L40.6814 34.8381C41.0559 34.487 41.5474 34.2764 42.0624 34.2764H47.9376C48.4525 34.2764 48.9441 34.487 49.3186 34.8381L55.6619 41.1814C56.0364 41.5559 56.247 42.0475 56.247 42.5625ZM38.9727 46.8928L43.6307 51.5507C44.3797 52.2998 45.6203 52.2998 46.3927 51.5507L51.0507 46.8928C51.7997 46.1203 51.7997 44.8797 51.0507 44.1307L46.3927 39.4727C45.6203 38.7003 44.3797 38.7003 43.6307 39.4727L38.9727 44.1307C38.2002 44.8797 38.2002 46.1203 38.9727 46.8928Z" fill="#C49B65"/>
<path fill-rule="evenodd" clip-rule="evenodd" d="M22.4707 8.80949V14.6847C22.4707 15.1996 22.2601 15.6912 21.909 16.0657L15.5657 22.409C15.1912 22.7835 14.6996 22.9707 14.1847 22.9707H8.30949C7.79454 22.9707 7.27958 22.7835 6.92848 22.409L0.585176 16.0657C0.210663 15.6912 0 15.1996 0 14.6847V8.80949C0 8.29454 0.210663 7.77958 0.585176 7.42848L6.92848 1.08518C7.27958 0.710663 7.79454 0.5 8.30949 0.5H14.1847C14.6996 0.5 15.1912 0.710663 15.5657 1.08518L21.909 7.42848C22.2601 7.77958 22.4707 8.29454 22.4707 8.80949ZM5.19636 13.1164L9.85436 17.7744C10.6268 18.5468 11.8674 18.5468 12.6164 17.7744L17.2744 13.1164C18.0468 12.3674 18.0468 11.1268 17.2744 10.3544L12.6164 5.69636C11.8674 4.94733 10.6268 4.94733 9.85436 5.69636L5.19636 10.3544C4.44733 11.1268 4.44733 12.3674 5.19636 13.1164Z" fill="#C49B65"/>
<path fill-rule="evenodd" clip-rule="evenodd" d="M90 76.3388V82.214C90 82.7289 89.7893 83.2205 89.4382 83.595L83.0949 89.9383C82.7204 90.3128 82.2288 90.5 81.7139 90.5H75.8387C75.3238 90.5 74.8088 90.3128 74.4577 89.9383L68.1144 83.595C67.7399 83.2205 67.5292 82.7289 67.5292 82.214V76.3388C67.5292 75.8238 67.7399 75.3323 68.1144 74.9578L74.4577 68.6145C74.8088 68.24 75.3238 68.0293 75.8387 68.0293H81.7139C82.2288 68.0293 82.7204 68.24 83.0949 68.6145L89.4382 74.9578C89.7893 75.3323 90 75.8238 90 76.3388ZM72.7256 80.6457L77.3836 85.3037C78.156 86.0761 79.3966 86.0761 80.1456 85.3037L84.8036 80.6457C85.576 79.8967 85.576 78.6561 84.8036 77.8837L80.1456 73.2257C79.3966 72.4766 78.156 72.4766 77.3836 73.2257L72.7256 77.8837C71.9766 78.6561 71.9766 79.8967 72.7256 80.6457Z" fill="#C49B65"/>
<path fill-rule="evenodd" clip-rule="evenodd" d="M81.7139 22.9707H75.8387C75.3238 22.9707 74.8088 22.7835 74.4577 22.409L68.1144 16.0657C67.7399 15.6912 67.5292 15.1996 67.5292 14.6847V8.80949C67.5292 8.29454 67.7399 7.77958 68.1144 7.42848L74.4577 1.08518C74.8088 0.710663 75.3238 0.5 75.8387 0.5H81.7139C82.2288 0.5 82.7204 0.710663 83.0949 1.08518L89.4382 7.42848C89.7893 7.77958 90 8.29454 90 8.80949V14.6847C90 15.1996 89.7893 15.6912 89.4382 16.0657L83.0949 22.409C82.7204 22.7835 82.2288 22.9707 81.7139 22.9707ZM77.3836 5.69636L72.7256 10.3544C71.9766 11.1268 71.9766 12.3674 72.7256 13.1164L77.3836 17.7744C78.156 18.5468 79.3966 18.5468 80.1456 17.7744L84.8036 13.1164C85.576 12.3674 85.576 11.1268 84.8036 10.3544L80.1456 5.69636C79.3966 4.94733 78.156 4.94733 77.3836 5.69636Z" fill="#C49B65"/>
<path fill-rule="evenodd" clip-rule="evenodd" d="M14.1847 90.5H8.30949C7.79454 90.5 7.27958 90.3128 6.92848 89.9383L0.585176 83.595C0.210663 83.2205 0 82.7289 0 82.214V76.3388C0 75.8238 0.210663 75.3323 0.585176 74.9578L6.92848 68.6145C7.27958 68.24 7.79454 68.0293 8.30949 68.0293H14.1847C14.6996 68.0293 15.1912 68.24 15.5657 68.6145L21.909 74.9578C22.2601 75.3323 22.4707 75.8238 22.4707 76.3388V82.214C22.4707 82.7289 22.2601 83.2205 21.909 83.595L15.5657 89.9383C15.1912 90.3128 14.6996 90.5 14.1847 90.5ZM9.85436 73.2257L5.19636 77.8837C4.44733 78.6561 4.44733 79.8967 5.19636 80.6457L9.85436 85.3037C10.6268 86.0761 11.8674 86.0761 12.6164 85.3037L17.2744 80.6457C18.0468 79.8967 18.0468 78.6561 17.2744 77.8837L12.6164 73.2257C11.8674 72.4766 10.6268 72.4766 9.85436 73.2257Z" fill="#C49B65"/>
<path d="M72.866 60.8899L75.4876 62.7391C76.2601 63.2774 77.3134 63.1838 77.9922 62.5284L89.4382 51.0824C89.7893 50.7079 90 50.2163 90 49.7014V41.3216C90 40.8067 89.7893 40.2917 89.4382 39.9406L77.9922 28.4946C77.3134 27.8158 76.2601 27.7456 75.4876 28.2839L72.866 30.1331C71.8595 30.8119 71.7425 32.2397 72.6086 33.1058L83.6333 44.1305C84.3823 44.8795 84.3823 46.1201 83.6333 46.8925L72.6086 57.9172C71.7425 58.7833 71.8595 60.1877 72.866 60.8899Z" fill="#A8223F"/>
<path d="M60.3901 17.6573L62.2393 15.0124C62.7777 14.2399 62.684 13.1866 62.0052 12.5078L50.5826 1.08518C50.2081 0.710663 49.7165 0.5 49.2016 0.5H40.8219C40.2835 0.5 39.792 0.710663 39.4409 1.08518L27.9948 12.5078C27.316 13.1866 27.2224 14.2399 27.7842 15.0124L29.6099 17.6573C30.3121 18.6404 31.7399 18.7809 32.606 17.9148L43.6307 6.89012C44.3797 6.11769 45.6203 6.11769 46.3927 6.89012L57.4174 17.9148C58.2601 18.7809 59.6879 18.6404 60.3901 17.6573Z" fill="#A8223F"/>
<path fill-rule="evenodd" clip-rule="evenodd" d="M116.146 13.7714C116.286 11.4541 116.309 11.2435 116.309 11.0562V5.22788C116.309 5.04062 116.286 4.82996 116.146 2.48926H121.412C123.73 2.48926 125.251 3.47235 125.251 5.60239C125.251 7.07703 124.502 8.08354 123.402 8.71553V8.9496L126.445 13.7714H123.121C122.348 11.8287 122.231 11.5712 122.138 11.4307L120.991 9.41774H119.095V11.0562C119.095 11.2435 119.118 11.4541 119.282 13.7714H116.146ZM119.048 7.89628H120.616C121.74 7.89628 122.372 7.33451 122.372 5.88328C122.372 4.66611 121.81 4.17456 120.757 4.17456H119.048V7.89628Z" fill="#C49B65"/>
<path d="M135.971 4.33841V7.2877H137.423C137.657 7.2877 137.891 7.2877 140.231 7.12385V9.32411C137.891 9.13685 137.657 9.11345 137.423 9.11345H135.971V11.8989H138.523C138.757 11.8989 139.014 11.8755 141.659 11.7116V13.7714H132.975C133.139 11.2435 133.139 11.0094 133.139 10.7519V5.48536C133.139 5.27469 133.139 5.04062 132.975 2.48926H141.659V4.57248C139.014 4.36182 138.757 4.33841 138.523 4.33841H135.971Z" fill="#C49B65"/>
<path d="M156.616 10.0029V5.48536C156.616 5.27469 156.593 5.04062 156.429 2.48926H159.168C159.004 5.04062 158.98 5.27469 158.98 5.48536V10.869C158.98 11.1264 159.004 11.3839 159.144 13.4671L156.429 13.9587L151.654 5.74283H151.443V10.7519C151.443 11.0094 151.467 11.2435 151.631 13.7714H148.892C149.056 11.2435 149.056 11.0094 149.056 10.7519V5.48536C149.056 5.27469 149.056 5.04062 148.892 2.48926H152.192L156.429 10.0029H156.616Z" fill="#C49B65"/>
<path fill-rule="evenodd" clip-rule="evenodd" d="M173.938 13.7716C173.469 11.8756 173.376 11.4309 173.329 11.2202H168.671C168.601 11.4309 168.507 11.8756 168.062 13.7716H165.23L168.32 5.228L168.905 2.53619L172.767 2.2085L176.746 13.7716H173.938ZM171.082 4.29172H170.871L169.28 9.32423H172.697L171.082 4.29172Z" fill="#C49B65"/>
<path d="M187.771 2.2085C188.778 2.2085 190.088 2.44257 191.118 2.91071L190.276 5.50889C188.871 4.66623 188.005 4.08106 187.326 4.08106C185.618 4.08106 184.728 5.71955 184.728 8.24751C184.728 10.7989 185.852 12.0863 187.607 12.0863C188.403 12.0863 189.222 11.8288 190.346 11.4075L190.908 13.0928C189.55 13.7248 188.333 14.0524 187.163 14.0524C183.675 14.0524 181.638 11.5713 181.638 8.5518C181.638 5.5557 184.213 2.2085 187.771 2.2085Z" fill="#C49B65"/>
<path d="M197.345 13.7714C197.508 11.2435 197.508 11.0094 197.508 10.7519V5.48536C197.508 5.27469 197.508 5.04062 197.345 2.48926H200.645C200.481 5.04062 200.458 5.27469 200.458 5.48536V10.7519C200.458 11.0094 200.481 11.2435 200.645 13.7714H197.345Z" fill="#C49B65"/>
<path d="M214.806 10.5881L217.1 2.48926H220.213L221.29 13.7714H218.551C218.622 11.2435 218.622 10.986 218.598 10.7753L218.2 5.34491H217.966L216.304 11.3371L215.86 13.5842L213.519 13.7714L211.131 5.34491H210.874L210.616 10.7519C210.616 10.986 210.616 11.2435 210.687 13.7714H207.971L208.931 2.48926H212.325L214.596 10.5881H214.806Z" fill="#C49B65"/>
<path d="M228.616 13.7714C228.78 11.2435 228.78 11.0094 228.78 10.7519V5.48536C228.78 5.27469 228.78 5.04062 228.616 2.48926H231.917C231.753 5.04062 231.729 5.27469 231.729 5.48536V10.7519C231.729 11.0094 231.753 11.2435 231.917 13.7714H228.616Z" fill="#C49B65"/>
<path d="M242.895 4.33841V7.2877H244.346C244.58 7.2877 244.814 7.2877 247.155 7.12385V9.32411C244.814 9.13685 244.58 9.11345 244.346 9.11345H242.895V11.8989H245.469C245.68 11.8989 245.938 11.8755 248.606 11.7116V13.7714H239.899C240.062 11.2435 240.062 11.0094 240.062 10.7519V5.48536C240.062 5.27469 240.062 5.04062 239.899 2.48926H248.606V4.57248C245.938 4.36182 245.68 4.33841 245.469 4.33841H242.895Z" fill="#C49B65"/>
<path d="M263.54 10.0029V5.48536C263.54 5.27469 263.516 5.04062 263.352 2.48926H266.091C265.927 5.04062 265.904 5.27469 265.904 5.48536V10.869C265.904 11.1264 265.927 11.3839 266.068 13.4671L263.352 13.9587L258.577 5.74283H258.39V10.7519C258.39 11.0094 258.413 11.2435 258.554 13.7714H255.815C255.979 11.2435 255.979 11.0094 255.979 10.7519V5.48536C255.979 5.27469 255.979 5.04062 255.815 2.48926H259.116L263.352 10.0029H263.54Z" fill="#C49B65"/>
<path d="M282.663 4.73633C280.205 4.45545 279.971 4.43204 279.737 4.43204H278.965V10.7519C278.965 11.0094 278.965 11.2435 279.129 13.7714H275.828C276.016 11.2435 276.039 11.0094 276.039 10.7519V4.43204H275.243C275.032 4.43204 274.775 4.45545 272.317 4.73633V2.48926H282.663V4.73633Z" fill="#C49B65"/>
<path fill-rule="evenodd" clip-rule="evenodd" d="M299.563 7.77937C299.563 10.7052 297.059 14.0524 293.454 14.0524C289.709 14.0524 287.813 11.5011 287.813 8.50498C287.813 5.5557 290.317 2.2085 293.922 2.2085C297.667 2.2085 299.563 4.75986 299.563 7.77937ZM293.711 12.1565C295.795 12.1565 296.473 10.3541 296.473 8.03684C296.473 6.00043 295.724 4.10446 293.618 4.10446C291.558 4.10446 290.902 5.90681 290.902 8.24751C290.902 10.2605 291.652 12.1565 293.711 12.1565Z" fill="#C49B65"/>
<path d="M320.887 10.5881L323.204 2.48926H326.317L327.371 13.7714H324.655C324.726 11.2435 324.726 10.986 324.702 10.7753L324.281 5.34491H324.047L322.385 11.3371L321.964 13.5842L319.623 13.7714L317.235 5.34491H316.978L316.72 10.7519C316.72 10.986 316.72 11.2435 316.791 13.7714H314.075L315.035 2.48926H318.429L320.676 10.5881H320.887Z" fill="#C49B65"/>
<path fill-rule="evenodd" clip-rule="evenodd" d="M341.508 13.7716C341.04 11.8756 340.947 11.4309 340.9 11.2202H336.242C336.172 11.4309 336.078 11.8756 335.61 13.7716H332.801L335.891 5.228L336.476 2.53619L340.315 2.2085L344.317 13.7716H341.508ZM338.653 4.29172H338.442L336.85 9.32423H340.268L338.653 4.29172Z" fill="#C49B65"/>
<path d="M353.586 7.91969L354.85 4.80655C354.874 4.68952 354.944 4.45545 355.436 2.48926H358.549L354.967 9.76884V11.0094C354.967 11.1967 354.991 11.4073 355.178 13.7714H351.854C352.042 11.4073 352.042 11.1967 352.042 11.0094V10.0731L348.273 2.48926H351.527C352.042 4.45545 352.135 4.73633 352.182 4.85337L353.352 7.91969H353.586Z" fill="#C49B65"/>
<path fill-rule="evenodd" clip-rule="evenodd" d="M371.212 13.7716C370.72 11.8756 370.627 11.4309 370.58 11.2202H365.922C365.852 11.4309 365.758 11.8756 365.313 13.7716H362.481L365.571 5.228L366.156 2.53619L370.018 2.2085L373.997 13.7716H371.212ZM368.356 4.29172H368.146L366.554 9.32423H369.971L368.356 4.29172Z" fill="#C49B65"/>
<path d="M115.092 29.9927H129.066C129.347 29.9927 129.581 30.2033 129.628 30.4608L130.143 33.1526C130.213 33.5037 129.932 33.8314 129.581 33.8314H127.873C127.451 33.8314 127.17 34.2293 127.311 34.6273L131.267 45.1604C131.36 45.3945 131.571 45.5349 131.805 45.5349H132.648C132.882 45.5349 133.116 45.3711 133.186 45.137L136.791 34.6039C136.908 34.2293 136.65 33.8314 136.252 33.8314H134.637C134.263 33.8314 134.005 33.5037 134.075 33.1526L134.567 30.4608C134.614 30.2033 134.871 29.9927 135.129 29.9927H145.709C145.99 29.9927 146.224 30.2033 146.294 30.4608L146.785 33.1526C146.856 33.5037 146.575 33.8314 146.224 33.8314H143.743C143.508 33.8314 143.321 33.9485 143.228 34.1357L134.895 50.0291C134.832 50.1383 134.809 50.2476 134.824 50.3568L135.527 58.3854C135.573 58.6897 135.808 58.9238 136.112 58.9238H138.85C139.108 58.9238 139.342 59.111 139.412 59.3685L140.138 62.3178C140.231 62.6923 139.951 63.0434 139.576 63.0434H122.114C121.74 63.0434 121.459 62.6923 121.553 62.3178L122.278 59.3685C122.349 59.111 122.583 58.9238 122.84 58.9238H125.485C125.789 58.9238 126.047 58.6897 126.07 58.4088L126.796 51.3867C126.819 51.2697 126.796 51.1526 126.726 51.0356L117.62 34.1357C117.527 33.9485 117.316 33.8314 117.105 33.8314H114.577C114.226 33.8314 113.945 33.5037 114.016 33.1526L114.531 30.4608C114.577 30.2033 114.811 29.9927 115.092 29.9927Z" fill="#A8223F"/>
<path d="M154.252 29.9927H168.343C168.624 29.9927 168.858 30.1799 168.905 30.4608L169.514 33.1292C169.584 33.4803 169.303 33.8314 168.952 33.8314H165.909C165.581 33.8314 165.324 34.0889 165.324 34.4166V48.531C165.324 51.9719 165.511 54.6403 166.845 56.2554C167.945 57.6364 169.818 58.3386 172.603 58.3386C173.61 58.3386 179.134 57.7534 179.134 52.3932V34.4166C179.134 34.0889 178.876 33.8314 178.549 33.8314H176.021C175.646 33.8314 175.365 33.4803 175.459 33.1292L176.044 30.4608C176.114 30.1799 176.349 29.9927 176.606 29.9927H187.514C187.795 29.9927 188.029 30.1799 188.099 30.4608L188.684 33.1292C188.778 33.4803 188.497 33.8314 188.122 33.8314H185.571C185.243 33.8314 184.986 34.0889 184.986 34.4166V50.427C184.986 54.1721 184.424 63.6052 170.895 63.6052C166.728 63.6052 162.983 62.4816 160.268 60.1175C157.974 58.0343 157.225 54.9446 157.225 51.1526V34.4166C157.225 34.0889 156.968 33.8314 156.64 33.8314H153.644C153.293 33.8314 153.012 33.4803 153.082 33.1292L153.691 30.4608C153.737 30.1799 153.971 29.9927 154.252 29.9927Z" fill="#A8223F"/>
<path fill-rule="evenodd" clip-rule="evenodd" d="M248.98 30.3906L259.303 58.5492C259.397 58.7599 259.607 58.9238 259.841 58.9238H262.557C262.931 58.9238 263.212 59.2749 263.118 59.626L262.463 62.5987C262.416 62.8561 262.159 63.0434 261.901 63.0434H247.599C247.319 63.0434 247.085 62.8561 247.038 62.5987L246.382 59.626C246.289 59.2749 246.57 58.9238 246.944 58.9238H249.776C250.151 58.9238 250.432 58.5492 250.338 58.1747L249.027 53.8912C248.957 53.6572 248.723 53.4699 248.466 53.4699H238.611C238.354 53.4699 238.12 53.6572 238.049 53.8912L236.809 58.1747C236.692 58.5492 236.973 58.9238 237.347 58.9238H240.156C240.531 58.9238 240.788 59.2749 240.718 59.626L240.062 62.5987C239.992 62.8561 239.758 63.0434 239.501 63.0434H228.663C228.406 63.0434 228.172 62.8561 228.101 62.5987L227.446 59.626C227.376 59.2749 227.633 58.9238 228.008 58.9238H230.068C230.302 58.9238 230.512 58.7599 230.606 58.5492L240.928 30.3906C240.999 30.1565 241.233 29.9927 241.467 29.9927H248.442C248.676 29.9927 248.887 30.1565 248.98 30.3906ZM240.062 49.6312H246.944C247.342 49.6312 247.623 49.2567 247.506 48.8821L244.112 37.6702C244.018 37.4361 243.808 37.2489 243.55 37.2489H243.339C243.082 37.2489 242.871 37.4361 242.801 37.6702L239.524 48.8821C239.407 49.2567 239.688 49.6312 240.062 49.6312Z" fill="#A8223F"/>
<path d="M352.58 30.2502L366.46 50.4738C366.554 50.6377 366.741 50.7313 366.928 50.7313H367.326V39.4959C367.326 39.4803 367.326 39.4647 367.326 39.4491L366.882 34.3698C366.858 34.0655 366.601 33.8314 366.296 33.8314H363.698C363.324 33.8314 363.066 33.4803 363.137 33.1292L363.745 30.4608C363.792 30.1799 364.026 29.9927 364.307 29.9927H374.957C375.238 29.9927 375.472 30.1799 375.519 30.4608L376.127 33.1292C376.198 33.4803 375.917 33.8314 375.542 33.8314H373.108C372.804 33.8314 372.57 34.0655 372.546 34.3698L372.078 39.4491C372.078 39.4647 372.078 39.4803 372.078 39.4959V52.3932C372.078 52.4088 372.078 52.4244 372.078 52.44L372.804 60.6091C372.827 60.8899 372.687 61.124 372.429 61.2176L366.343 63.4413C366.086 63.5349 365.805 63.4413 365.664 63.2306L350.286 40.8769C350.192 40.7365 350.005 40.6429 349.818 40.6429H349.42L349.701 58.362C349.701 58.6663 349.958 58.9238 350.286 58.9238H353.189C353.563 58.9238 353.844 59.2749 353.774 59.626L353.095 62.5987C353.048 62.8561 352.814 63.0434 352.533 63.0434H341.462C341.181 63.0434 340.947 62.8561 340.876 62.5987L340.221 59.626C340.151 59.2749 340.432 58.9238 340.783 58.9238H343.241C343.545 58.9238 343.802 58.6663 343.826 58.362L344.575 39.1448C344.575 39.1292 344.575 39.1058 344.575 39.0746L344.153 34.3698C344.13 34.0655 343.873 33.8314 343.568 33.8314H340.9C340.525 33.8314 340.268 33.5037 340.338 33.1292L340.923 30.4608C340.993 30.1799 341.228 29.9927 341.508 29.9927H352.088C352.276 29.9927 352.463 30.0863 352.58 30.2502Z" fill="#A8223F"/>
<path d="M294.554 29.3374H267.074C266.91 29.3374 266.746 29.4076 266.629 29.5481L265.436 30.9759C265.342 31.0929 265.295 31.2568 265.319 31.4206L266.302 39.7301C266.325 40.011 266.583 40.2451 266.863 40.2451H269.321C269.602 40.2451 269.836 40.0344 269.883 39.7535L270.679 34.8381C270.726 34.5572 270.96 34.3465 271.241 34.3465H276.484C276.811 34.3465 277.069 34.6274 277.069 34.9551L276.531 58.3621C276.531 58.6664 276.273 58.9239 275.945 58.9239L271.568 58.9473C271.194 58.9473 270.913 59.2984 271.007 59.6495L271.662 62.5988C271.709 62.8563 271.943 63.0435 272.224 63.0435H280.814H289.428C289.685 63.0435 289.919 62.8563 289.99 62.5988L290.645 59.6261C290.715 59.275 290.458 58.9239 290.083 58.9239H285.683C285.378 58.9239 285.121 58.6664 285.121 58.3621L284.583 34.9551C284.559 34.6274 284.817 34.3465 285.144 34.3465H290.388C290.668 34.3465 290.926 34.5572 290.973 34.8381L291.745 39.7535C291.792 40.0344 292.049 40.2451 292.33 40.2451H294.765C295.069 40.2451 295.303 40.011 295.35 39.7301L296.333 31.4206C296.356 31.2568 296.286 31.0929 296.192 30.9759L294.999 29.5481C294.882 29.4076 294.718 29.3374 294.554 29.3374Z" fill="#A8223F"/>
<path d="M315.035 22.8066H322.291C322.619 22.8066 322.876 23.0641 322.876 23.3918V25.8261C322.876 26.1304 322.642 26.3879 322.361 26.4113L313.303 27.2072C313.163 27.2072 313.069 27.0667 313.116 26.9497L314.497 23.2046C314.567 22.9705 314.778 22.8066 315.035 22.8066Z" fill="#A8223F"/>
<path fill-rule="evenodd" clip-rule="evenodd" d="M319.81 29.7584L330.367 58.549C330.46 58.7597 330.671 58.9235 330.905 58.9235H333.62C333.995 58.9235 334.276 59.2746 334.182 59.6257L333.527 62.5984C333.48 62.8559 333.246 63.0432 332.965 63.0432H318.663C318.382 63.0432 318.148 62.8559 318.101 62.5984L317.446 59.6257C317.352 59.2746 317.633 58.9235 318.008 58.9235H320.84C321.238 58.9235 321.495 58.549 321.402 58.1745L320.091 53.891C320.021 53.657 319.787 53.4697 319.529 53.4697H309.675C309.417 53.4697 309.183 53.657 309.113 53.891L307.873 58.1745C307.756 58.549 308.036 58.9235 308.434 58.9235H311.22C311.594 58.9235 311.852 59.2746 311.781 59.6257L311.126 62.5984C311.056 62.8559 310.822 63.0432 310.564 63.0432H299.727C299.469 63.0432 299.235 62.8559 299.165 62.5984L298.51 59.6257C298.44 59.2746 298.697 58.9235 299.071 58.9235H301.131C301.365 58.9235 301.576 58.7597 301.67 58.549L311.992 30.3436C312.086 30.1329 312.273 29.9925 312.484 29.969L319.225 29.3839C319.482 29.3605 319.716 29.5009 319.81 29.7584ZM311.126 49.6309H318.008C318.406 49.6309 318.687 49.2564 318.57 48.8819L315.176 37.67C315.105 37.4359 314.871 37.2486 314.614 37.2486H314.403C314.146 37.2486 313.935 37.4359 313.865 37.67L310.588 48.8819C310.471 49.2564 310.752 49.6309 311.126 49.6309Z" fill="#A8223F"/>
<path d="M192.827 47.7119C192.827 32.2867 207.012 29.5481 209.446 29.3374C209.462 29.3374 209.485 29.3374 209.516 29.3374C213.589 29.3374 217.99 29.9694 220.237 30.7418C220.346 30.7886 220.44 30.8667 220.518 30.9759L221.805 32.8485C221.875 32.9655 221.922 33.1293 221.875 33.2698L220.471 41.1111C220.424 41.392 220.19 41.5793 219.909 41.5793H217.451C217.17 41.5793 216.913 41.3686 216.866 41.0877L216.257 36.3829C216.234 36.1957 216.117 36.0084 215.93 35.9382C214.268 35.0955 212.255 34.604 210.289 34.604C208.299 34.604 206.309 35.0955 204.694 36.1723C204.648 36.2035 204.601 36.2425 204.554 36.2893C203.056 38.0448 201.371 41.9538 201.371 46.5884C201.371 53.47 204.882 58.9473 211.646 58.9473C212.957 58.9473 214.151 58.8537 215.532 58.2451C215.672 58.1749 215.789 58.0578 215.836 57.9174L218.06 52.1358C218.153 51.9018 218.364 51.7613 218.598 51.7613H221.056C221.43 51.7613 221.688 52.089 221.641 52.4401L220.073 61.7327C220.026 61.9434 219.886 62.1306 219.675 62.2009C217.006 63.0435 212.793 63.6989 209.774 63.6989C200.013 63.6989 192.827 57.5897 192.827 47.7119Z" fill="#A8223F"/>
<path d="M121.646 83.8289C121.646 83.665 121.623 83.4076 121.553 82.0266H122.746V85.2567C121.717 85.8185 120.687 86.0057 119.867 86.0057C117.269 86.0057 116.146 84.0396 116.146 82.1202C116.146 80.0604 117.644 77.6729 120.242 77.6729C120.921 77.6729 121.974 77.8367 122.793 78.1644L122.395 79.405C121.272 79.0305 120.406 78.7262 119.891 78.7262C118.299 78.7262 117.363 80.1306 117.363 81.8627C117.363 83.9225 118.533 84.9758 120.055 84.9758C120.523 84.9758 121.038 84.8588 121.646 84.6481V83.8289Z" fill="#2D2829"/>
<path fill-rule="evenodd" clip-rule="evenodd" d="M133.092 81.6286C133.092 83.6182 131.571 86.0057 128.996 86.0057C126.421 86.0057 125.204 83.9693 125.204 82.05C125.204 80.0604 126.726 77.6729 129.324 77.6729C131.899 77.6729 133.092 79.7093 133.092 81.6286ZM129.183 84.929C131.033 84.929 131.875 83.548 131.875 81.8393C131.875 80.1774 130.962 78.7496 129.137 78.7496C127.287 78.7496 126.445 80.1306 126.445 81.8627C126.445 83.5246 127.358 84.929 129.183 84.929Z" fill="#2D2829"/>
<path fill-rule="evenodd" clip-rule="evenodd" d="M140.536 81.6752C141.636 81.8859 142.174 82.4476 142.174 83.4307C142.174 84.9054 140.934 85.8183 139.459 85.8183H136.323C136.393 84.2968 136.393 84.1563 136.393 84.0159V79.6856C136.393 79.4984 136.393 79.3813 136.323 77.8599H139.295C140.77 77.8599 141.683 78.4216 141.683 79.6856C141.683 80.5985 141.191 81.2539 140.536 81.5348V81.6752ZM139.178 78.7259H137.563V81.3007H139.272C140.091 81.3007 140.536 80.856 140.536 79.8261C140.536 78.9834 140.208 78.7259 139.178 78.7259ZM139.389 84.9756C140.489 84.9756 141.004 84.5075 141.004 83.501C141.004 82.471 140.466 82.1199 139.225 82.1199H137.563V84.9756H139.389Z" fill="#2D2829"/>
<path d="M145.545 85.8183C145.638 84.2968 145.638 84.1563 145.638 84.0159V79.6856C145.638 79.5218 145.638 79.3813 145.545 77.8599H146.902C146.832 79.3813 146.832 79.5218 146.832 79.6856V84.0159C146.832 84.1563 146.832 84.2968 146.902 85.8183H145.545Z" fill="#2D2829"/>
<path d="M152.309 78.7493V81.4411H153.573C153.737 81.4411 153.901 81.4411 155.563 81.3475V82.4008C153.901 82.3306 153.737 82.3306 153.573 82.3306H152.309V84.9288H154.58C154.72 84.9288 154.884 84.9054 156.57 84.8118V85.8183H151.045C151.139 84.2968 151.139 84.1563 151.139 84.0159V79.6856C151.139 79.5218 151.139 79.3813 151.045 77.8599H156.57V78.8664C154.884 78.7727 154.72 78.7493 154.58 78.7493H152.309Z" fill="#2D2829"/>
<path fill-rule="evenodd" clip-rule="evenodd" d="M159.964 85.8183C160.057 84.2968 160.057 84.1563 160.057 84.0159V79.6856C160.057 79.5218 160.057 79.3813 159.964 77.8599H162.772C164.317 77.8599 165.417 78.5153 165.417 79.9899C165.417 81.1134 164.832 81.8156 164.013 82.2838V82.4242L166.307 85.8183H164.856C164.294 84.7415 164.153 84.484 164.083 84.367L162.889 82.5179H161.204V84.0159C161.204 84.1563 161.204 84.2968 161.298 85.8183H159.964ZM161.181 81.6986H162.702C163.545 81.6986 164.224 81.3709 164.224 80.1069C164.224 79.0536 163.615 78.7259 162.749 78.7259H161.181V81.6986Z" fill="#2D2829"/>
<path d="M174.663 84.1329V79.6856C174.663 79.5218 174.663 79.3813 174.593 77.8599H175.81C175.74 79.3813 175.74 79.5218 175.74 79.6856V83.7818C175.74 83.9457 175.74 84.0627 175.834 85.6076L174.57 85.9587L170.567 79.3111H170.45V84.0159C170.45 84.1563 170.45 84.2968 170.52 85.8183H169.28C169.373 84.2968 169.373 84.1563 169.373 84.0159V79.6856C169.373 79.5218 169.373 79.3813 169.28 77.8599H170.801L174.546 84.1329H174.663Z" fill="#2D2829"/>
<path fill-rule="evenodd" clip-rule="evenodd" d="M186.952 81.6286C186.952 83.6182 185.43 86.0057 182.832 86.0057C180.257 86.0057 179.064 83.9693 179.064 82.05C179.064 80.0604 180.585 77.6729 183.183 77.6729C185.758 77.6729 186.952 79.7093 186.952 81.6286ZM183.02 84.929C184.869 84.929 185.711 83.548 185.711 81.8393C185.711 80.1774 184.822 78.7496 182.996 78.7496C181.147 78.7496 180.304 80.1306 180.304 81.8627C180.304 83.5246 181.217 84.929 183.02 84.929Z" fill="#2D2829"/>
<path fill-rule="evenodd" clip-rule="evenodd" d="M196.994 77.8599C199.147 77.8599 200.505 79.2175 200.505 81.4411C200.505 83.8287 199.077 85.8183 196.806 85.8183H193.88C193.951 84.4372 193.951 84.2032 193.951 84.0159V79.6622C193.951 79.4984 193.951 79.2643 193.88 77.8599H196.994ZM196.619 84.9288C198.421 84.9288 199.264 83.7116 199.264 81.605C199.264 79.6154 198.445 78.7493 196.502 78.7493H195.144V84.9288H196.619Z" fill="#2D2829"/>
<path d="M204.952 78.7493V81.4411H206.239C206.38 81.4411 206.567 81.4411 208.229 81.3475V82.4008C206.567 82.3306 206.38 82.3306 206.239 82.3306H204.952V84.9288H207.222C207.386 84.9288 207.55 84.9054 209.212 84.8118V85.8183H203.711C203.805 84.2968 203.805 84.1563 203.805 84.0159V79.6856C203.805 79.5218 203.805 79.3813 203.711 77.8599H209.212V78.8664C207.55 78.7727 207.386 78.7493 207.222 78.7493H204.952Z" fill="#2D2829"/>
<path d="M215.649 84.9288C215.789 84.9288 215.953 84.9054 217.639 84.8118V85.8183H212.629C212.7 84.2968 212.7 84.1563 212.7 84.0159V79.6856C212.7 79.5218 212.7 79.3813 212.629 77.8599H213.987C213.893 79.3813 213.893 79.5218 213.893 79.6856V84.9288H215.649Z" fill="#2D2829"/>
<path d="M225.269 78.7493V81.4411H226.557C226.697 81.4411 226.884 81.4411 228.546 81.3475V82.4008C226.884 82.3306 226.697 82.3306 226.557 82.3306H225.269V84.9288H227.54C227.703 84.9288 227.867 84.9054 229.529 84.8118V85.8183H224.029C224.122 84.2968 224.122 84.1563 224.122 84.0159V79.6856C224.122 79.5218 224.122 79.3813 224.029 77.8599H229.529V78.8664C227.867 78.7727 227.703 78.7493 227.54 78.7493H225.269Z" fill="#2D2829"/>
<path d="M232.034 85.444L232.385 84.3673C233.86 84.812 234.398 85.0227 234.983 85.0227C235.802 85.0227 236.294 84.6481 236.294 83.7119C236.294 82.8224 235.311 82.5415 234.328 82.1436C233.321 81.7457 232.268 81.2775 232.268 79.9199C232.268 78.6325 233.719 77.6729 235.17 77.6729C235.826 77.6729 236.622 77.8601 237.254 78.1176L236.902 79.1709C235.592 78.8432 235.077 78.7262 234.655 78.7262C233.906 78.7262 233.391 79.0071 233.391 79.7561C233.391 80.4817 234.023 80.786 234.819 81.0903C235.99 81.5584 237.464 81.9797 237.464 83.5246C237.464 85.0929 236.013 86.0057 234.445 86.0057C233.719 86.0057 232.83 85.7483 232.034 85.444Z" fill="#2D2829"/>
<path d="M245.844 78.8664C244.182 78.7727 243.995 78.7493 243.854 78.7493H243.105V84.0159C243.105 84.1563 243.105 84.2968 243.176 85.8183H241.818C241.912 84.2968 241.912 84.1563 241.912 84.0159V78.7493H241.139C240.999 78.7493 240.811 78.7727 239.15 78.8664V77.8599H245.844V78.8664Z" fill="#2D2829"/>
<path fill-rule="evenodd" clip-rule="evenodd" d="M251.017 77.6494L254.06 85.8185H252.772C252.351 84.3204 252.304 84.1332 252.234 84.0161L252.117 83.6182H248.512L248.372 84.0161C248.325 84.1332 248.278 84.3204 247.857 85.8185H246.593L249.004 79.4518L249.472 77.8835L251.017 77.6494ZM248.817 82.7521H251.789L250.362 78.7964H250.245L248.817 82.7521Z" fill="#2D2829"/>
<path fill-rule="evenodd" clip-rule="evenodd" d="M259.748 77.8599C261.901 77.8599 263.235 79.2175 263.235 81.4411C263.235 83.8287 261.831 85.8183 259.56 85.8183H256.635C256.681 84.4372 256.705 84.2032 256.705 84.0159V79.6622C256.705 79.4984 256.681 79.2643 256.635 77.8599H259.748ZM259.373 84.9288C261.175 84.9288 262.018 83.7116 262.018 81.605C262.018 79.6154 261.199 78.7493 259.256 78.7493H257.899V84.9288H259.373Z" fill="#2D2829"/>
<path fill-rule="evenodd" clip-rule="evenodd" d="M273.441 81.6286C273.441 83.6182 271.919 86.0057 269.321 86.0057C266.746 86.0057 265.553 83.9693 265.553 82.05C265.553 80.0604 267.074 77.6729 269.672 77.6729C272.247 77.6729 273.441 79.7093 273.441 81.6286ZM269.508 84.929C271.358 84.929 272.2 83.548 272.2 81.8393C272.2 80.1774 271.287 78.7496 269.485 78.7496C267.612 78.7496 266.77 80.1306 266.77 81.8627C266.77 83.5246 267.683 84.929 269.508 84.929Z" fill="#2D2829"/>
<path d="M293.852 78.6086C295.303 78 296.099 77.6489 297.105 77.6489C298.557 77.6489 299.633 78.3043 299.633 79.8726C299.633 81.7217 298.229 83.0559 295.631 84.7647L295.701 84.9051L299.844 84.6008L299.821 85.7478H294.133L293.805 84.9285C296.099 83.29 298.393 81.9558 298.393 79.9662C298.393 79.147 297.925 78.6788 297.059 78.6788C296.52 78.6788 295.654 79.1002 294.273 79.6853L293.852 78.6086Z" fill="#2D2829"/>
<path fill-rule="evenodd" clip-rule="evenodd" d="M302.161 82.0729C302.161 79.8024 304.174 77.6489 306.257 77.6489C308.528 77.6489 309.932 79.2172 309.932 81.5345C309.932 83.7816 307.943 85.935 305.86 85.935C303.589 85.935 302.161 84.3901 302.161 82.0729ZM308.692 81.6515C308.692 79.896 307.849 78.7725 306.07 78.7725C304.385 78.7725 303.425 80.2939 303.425 81.9558C303.425 83.7113 304.268 84.8349 306 84.8349C307.732 84.8349 308.692 83.29 308.692 81.6515Z" fill="#2D2829"/>
<path d="M312.133 78.6086C313.607 78 314.38 77.6489 315.41 77.6489C316.837 77.6489 317.938 78.3043 317.938 79.8726C317.938 81.7217 316.533 83.0559 313.935 84.7647L314.005 84.9051L318.148 84.6008L318.125 85.7478H312.437L312.086 84.9285C314.38 83.29 316.697 81.9558 316.697 79.9662C316.697 79.147 316.229 78.6788 315.339 78.6788C314.824 78.6788 313.935 79.1002 312.554 79.6853L312.133 78.6086Z" fill="#2D2829"/>
<path d="M326.809 85.748H325.334V86.7077C325.334 86.8481 325.334 86.9886 325.428 88.51L324.164 88.8143C324.234 87.2695 324.234 87.129 324.234 86.9886V85.748H319.974L319.459 85.0458L322.549 79.6856C322.596 79.5919 322.689 79.4047 323.743 77.0874L324.936 77.696L320.84 84.7649L320.91 84.9053L324.234 84.7883V83.8754C324.234 83.7116 324.234 83.5946 324.164 82.0497L325.428 81.7688L325.334 84.5776V84.7883L326.809 84.7415V85.748Z" fill="#2D2829"/>
<path d="M341.298 78.6086C342.749 78 343.521 77.6489 344.551 77.6489C345.979 77.6489 347.079 78.3043 347.079 79.8726C347.079 81.7217 345.675 83.0559 343.077 84.7647L343.147 84.9051L347.29 84.6008L347.267 85.7478H341.579L341.251 84.9285C343.521 83.29 345.839 81.9558 345.839 79.9662C345.839 79.147 345.371 78.6788 344.481 78.6788C343.966 78.6788 343.1 79.1002 341.719 79.6853L341.298 78.6086Z" fill="#2D2829"/>
<path fill-rule="evenodd" clip-rule="evenodd" d="M349.607 82.0729C349.607 79.8024 351.62 77.6489 353.68 77.6489C355.951 77.6489 357.378 79.2172 357.378 81.5345C357.378 83.7816 355.365 85.935 353.306 85.935C351.035 85.935 349.607 84.3901 349.607 82.0729ZM356.138 81.6515C356.138 79.896 355.295 78.7725 353.516 78.7725C351.808 78.7725 350.848 80.2939 350.848 81.9558C350.848 83.7113 351.691 84.8349 353.446 84.8349C355.178 84.8349 356.138 83.29 356.138 81.6515Z" fill="#2D2829"/>
<path d="M360.632 82.8687C361.451 82.6814 361.826 82.6112 362.458 82.4005C363.347 82.1197 363.792 81.2536 363.792 80.0598C363.792 79.147 363.324 78.6788 362.458 78.6788C361.919 78.6788 361.053 79.1002 359.672 79.6853L359.251 78.6086C360.702 78 361.498 77.6489 362.505 77.6489C363.956 77.6489 365.033 78.3277 365.033 79.896C365.033 81.16 364.494 81.9792 363.558 82.5878L363.581 82.7282C364.728 83.0559 365.384 83.805 365.384 85.2328C365.384 87.5501 363.769 88.7907 361.475 88.7907C360.726 88.7907 359.813 88.6502 359.017 88.3693L359.415 87.199C360.89 87.7139 361.358 87.9246 361.873 87.9246C363.464 87.9246 364.143 86.684 364.143 85.2796C364.143 83.922 363.441 83.4773 362.481 83.4773C361.99 83.4773 361.428 83.5943 360.843 83.7582L360.632 82.8687Z" fill="#2D2829"/>
<path fill-rule="evenodd" clip-rule="evenodd" d="M367.49 82.0729C367.49 79.8024 369.48 77.6489 371.563 77.6489C373.834 77.6489 375.238 79.2172 375.238 81.5345C375.238 83.7816 373.248 85.935 371.165 85.935C368.895 85.935 367.49 84.3901 367.49 82.0729ZM373.997 81.6515C373.997 79.896 373.155 78.7725 371.399 78.7725C369.69 78.7725 368.731 80.2939 368.731 81.9558C368.731 83.7113 369.573 84.8349 371.329 84.8349C373.038 84.8349 373.997 83.29 373.997 81.6515Z" fill="#2D2829"/>
<path fill-rule="evenodd" clip-rule="evenodd" d="M331.42 82.3775C331.116 82.0966 331.116 81.6285 331.42 81.3242L333.503 79.2409C333.784 78.9601 334.252 78.9601 334.557 79.2409L336.64 81.3242C336.944 81.6285 336.944 82.0966 336.64 82.3775L334.557 84.4841C334.252 84.765 333.784 84.765 333.503 84.4841L331.42 82.3775ZM333.105 81.8391C333.105 82.0732 333.199 82.3307 333.386 82.4945C333.573 82.6818 333.807 82.7754 334.042 82.7754C334.276 82.7754 334.51 82.6818 334.697 82.4945C334.884 82.3307 334.978 82.0732 334.978 81.8391C334.978 81.605 334.884 81.371 334.697 81.1837C334.322 80.8092 333.737 80.8092 333.386 81.1837C333.199 81.371 333.105 81.605 333.105 81.8391Z" fill="#BB945C"/>
<path d="M283.997 88.2762H283.248V75.3789H283.997V88.2762Z" fill="#BB945C"/>
</svg>
